<svg xmlns="http://www.w3.org/2000/svg" viewBox="0 0 200 200"><defs><style>.cls-1,.cls-2{stroke:#000;}.cls-1{stroke-linecap:round;stroke-linejoin:round;stroke-width:7.73px;}.cls-1,.cls-2,.cls-4{fill-rule:evenodd;}.cls-2,.cls-3,.cls-4{fill:#fff;}.cls-2{stroke-miterlimit:10;stroke-width:0.55px;}</style></defs><title>staff_pick</title><g id="Layer_2" data-name="Layer 2"><g id="Layer_1-2" data-name="Layer 1"><circle cx="100" cy="100" r="100"/><path class="cls-1" d="M184.26 85.94l.18 1.13c.1.68.26 1.59.38 2.5l.34 3.66s-1.38-1.37-2.74-2.65c-.35-.32-.67-.64-1-.93l-.93-.79-.9-.75-.19-1.11c-.11-.64-.21-1.5-.39-2.34l-.74-3.38s1.5 1.06 3 2.21l1.12.85.93.77zM189 78.77l.84 3.84c.2 1 .32 1.94.44 2.67l.19 1.21-.62 1.08-.64 1.09c-.24.4-.52.82-.79 1.23-1.09 1.67-2.19 3.24-2.19 3.24l-.34-3.7c-.12-.92-.28-1.84-.38-2.53l-.18-1.15.62-1.05.63-1.1.66-1.27c.91-1.73 1.76-3.56 1.76-3.56zM182.37 77.34l.31 1.1c.21.66.38 1.56.58 2.46l.54 2.47.18.81v.31s-.36-.31-.94-.75-1.34-1-2.1-1.59-1.51-1.11-2.08-1.51-1-.66-1-.66l-.86-3.32c-.12-.41-.22-.84-.36-1.22l-.37-1-.36-1 1 .57c.61.35 1.46.81 2.25 1.31 1.61.93 3.21 2.02 3.21 2.02zM186.35 69.72l.41 1.16.42 1.19c.15.43.27.91.41 1.38l1.07 3.79s-.18.46-.52 1.14-.77 1.58-1.21 2.46-.89 1.75-1.23 2.38-.58 1.06-.58 1.06v-.32l-.18-.82-.55-2.5c-.21-.91-.37-1.82-.59-2.49l-.36-1.15s.79-1.76 1.56-3.61c.38-.92.69-1.84.95-2.54zM179.63 69l.12.29c.07.19.16.46.28.78l.84 2.38c.3.87.63 1.73.79 2.39l.31 1.1-1-.66-1-.66-1.22-.71c-1.65-1-3.27-1.83-3.27-1.83l-.36-1-.92-2.19-.92-2.19-.48-1 1.09.45c.65.28 1.47.68 2.32 1.09 1.69.82 3.42 1.76 3.42 1.76zM182.78 61l.54 1.1 1.05 2.49 1 2.49.41 1.16s-.64 1.92-1.32 3.75l-.5 1.34-.49 1.17-.47 1.11-.32-1.12c-.17-.68-.5-1.55-.8-2.43l-.85-2.41c-.12-.33-.21-.6-.28-.79l-.12-.29s.58-1.82 1.13-3.73c.27-.95.55-1.93.72-2.65zM176 60.95l1.62 3.29c.4.82.72 1.69 1 2.32l.44 1.06s-1.72-.89-3.4-1.69c-.85-.4-1.75-.76-2.39-1l-1.08-.44-.48-1-.49-1c-.19-.36-.41-.73-.62-1.11l-1.71-3s1.74.56 3.53 1.19c.89.32 1.8.65 2.48.91zM178.34 52.66l1.94 3.42c.24.43.49.85.71 1.26l.56 1.13.54 1.1-.27 1.22c-.17.73-.37 1.68-.63 2.64-.54 1.93-1.11 3.77-1.11 3.77l-.45-1.07c-.28-.64-.61-1.51-1-2.35L177 60.44l.28-1.2c.14-.71.31-1.66.47-2.63.31-1.94.59-3.95.59-3.95zM171.55 53.34l.62 1c.37.58.9 1.33 1.33 2.14l1.81 3.19s-1.82-.69-3.6-1.31-3.58-1.12-3.58-1.12l-1.88-2.9-2-2.79s1.81.36 3.67.8c.95.21 1.83.48 2.52.67zM173 44.87l2.35 3.13 2.14 3.3s-.17 2-.52 3.94-.68 3.84-.68 3.84l-1.84-3.23c-.44-.82-1-1.58-1.35-2.17l-.63-1 .14-1.21c.08-.73.2-1.73.24-2.69.15-1.89.15-3.91.15-3.91zM166.37 46.22l.73.88c.45.52 1 1.29 1.51 2l1.5 2c.21.27.36.52.47.68l.17.26s-.45-.14-1.15-.32-1.64-.4-2.57-.61l-2.52-.54-.82-.16-.31-.06-2.21-2.66c-.28-.33-.55-.67-.81-1l-.76-.81-.74-.79 1.16.11c.69.08 1.67.15 2.58.3 1.86.37 3.77.72 3.77.72zM167 37.65l.84.9.86.92c.3.35.61.73.93 1.11l2.51 3v1.27c0 .75-.06 1.75-.11 2.74s-.11 2-.16 2.67-.12 1.22-.12 1.22l-.17-.27c-.11-.17-.27-.42-.48-.69l-1.51-2.06c-.56-.74-1.08-1.51-1.53-2l-.74-.89v-3.92c0-1-.11-2-.15-2.71zM160.49 39.66l.23.22.57.61 1.71 1.84c.63.67 1.26 1.33 1.69 1.88l.73.88-1.18-.2-1.19-.19c-.44-.06-.92-.11-1.4-.17-1.9-.21-3.74-.36-3.74-.36l-.74-.79-1.72-1.64-1.72-1.64-.83-.7h1.18c.71 0 1.62 0 2.57.07 1.89.05 3.84.19 3.84.19zM160.18 31.08l.94.8 2 1.86 2 1.87.84.9s.18 2 .3 4c0 .49.06 1 .08 1.43v2.49l-.74-.89c-.43-.55-1.07-1.22-1.71-1.9l-1.74-1.87-.58-.61-.23-.22s-.19-1.9-.46-3.87c-.13-1-.26-2-.4-2.71zM153.95 33.76l2.8 2.37c.7.59 1.34 1.26 1.85 1.72l.83.79s-1.93-.12-3.79-.19h-3.77l-.82-.7-.84-.72-1-.76-2.76-2.08s1.82-.18 3.72-.31l2.63-.16zM152.79 25.23l3.14 2.36 1.15.87 1 .81.94.79.24 1.22c.14.74.33 1.69.48 2.67.28 2 .49 3.9.49 3.9l-.84-.8c-.51-.47-1.16-1.14-1.87-1.74l-2.84-2.41-.23-1.21c-.16-.7-.38-1.65-.62-2.6-.5-1.9-1.04-3.86-1.04-3.86zM182.86 120.91s-.09.45-.29 1.11l-.69 2.43c-.23.89-.54 1.75-.76 2.41l-.37 1.09-.44-1.12c-.27-.67-.61-1.54-1-2.4-.8-1.74-1.62-3.39-1.62-3.39s.12-.41.29-1l.53-2.32c.2-.84.39-1.68.49-2.32l.19-1.06.61 1c.37.6.86 1.42 1.29 2.24.91 1.59 1.77 3.33 1.77 3.33zM190.06 116.24l-.22 1.21c-.11.73-.33 1.69-.56 2.65l-.61 2.64c-.19.71-.33 1.18-.33 1.18s-1.63 1.2-3.24 2.3c-.81.55-1.67 1.07-2.28 1.46l-1 .64.37-1.1c.22-.66.54-1.54.77-2.44l.7-2.46c.2-.67.3-1.12.3-1.12s1.54-1.14 3.1-2.38c.79-.61 1.53-1.26 2.09-1.75zM184.56 112.27v.31c0 .2-.06.48-.12.82l-.44 2.48-.24 1.33-.26 1.15-.26 1.12-.55-1.06c-.34-.64-.75-1.46-1.26-2.29-1-1.65-2-3.21-2-3.21l.05-.29c0-.19.08-.45.12-.77l.3-2.36.16-1.26.08-1.11.08-1.08.71.93c.42.56 1 1.33 1.52 2.1 1.06 1.55 2.11 3.19 2.11 3.19zM191.24 106.88l-.09 1.22-.1 1.26-.18 1.43-.34 2.68c0 .37-.09.67-.13.88l-.06.33s-1.5 1.36-3 2.62c-.73.64-1.54 1.24-2.11 1.69l-1 .74.26-1.13.27-1.16.24-1.34.45-2.52c.07-.34.1-.63.13-.83v-.32s1.42-1.3 2.85-2.68c.73-.69 1.38-1.41 1.9-2zM185.36 103.5v1.15l-.19 2.52c-.06.92-.13 1.83-.24 2.51l-.14 1.14-.66-1c-.39-.6-.91-1.38-1.49-2.15-1.13-1.54-2.26-3-2.26-3s.05-.43.05-1.08l.06-2.38v-3.46l.8.85c.47.52 1.16 1.22 1.74 1.93 1.12 1.47 2.33 2.97 2.33 2.97zM191.45 97.46v3.93l-.07 2.7c0 .74-.06 1.23-.06 1.23s-1.36 1.5-2.71 2.91c-.66.71-1.38 1.39-1.92 1.9l-.89.83.15-1.15c.1-.69.18-1.62.24-2.54l.19-2.55v-1.16s1.28-1.43 2.56-3c.66-.76 1.22-1.54 1.68-2.13zM185.28 94.69l.11 3.67c0 .92.07 1.84 0 2.52v1.15l-.75-.93c-.45-.55-1-1.28-1.71-2-1.29-1.42-2.57-2.74-2.57-2.74v-1.08c0-.65-.13-1.51-.2-2.37l-.22-2.37a9.55 9.55 0 0 0-.13-1.07l.25.21c.16.13.38.32.63.56.51.47 1.19 1.1 1.88 1.75s1.37 1.32 1.89 1.83l.62.62zM190.74 88.05a12.13 12.13 0 0 1 .15 1.22l.25 2.69c.08 1 .2 2 .22 2.69v1.23s-1.19 1.63-2.39 3.17c-.58.77-1.22 1.53-1.71 2.08l-.8.92v-1.16-2.56l-.12-3.72.19-.27.5-.71c.41-.59 1-1.4 1.51-2.22s1.09-1.66 1.5-2.3c.21-.32.37-.59.48-.77zM140.86 175.06l-.28.15-.74.38-2.25 1.15c-.81.43-1.67.77-2.29 1.07l-1 .47s.84-1.75 1.6-3.45 1.39-3.5 1.39-3.5l1-.49c.57-.31 1.31-.75 2.06-1.18s1.51-.85 2-1.21l.91-.58-.32 1.13-.34 1.16-.43 1.3c-.63 1.78-1.31 3.6-1.31 3.6zM149.17 177.17l-1 .66c-.61.41-1.47.89-2.32 1.38s-1.7 1-2.35 1.34l-1.09.56s-2-.38-3.88-.81-3.79-1-3.79-1l1.06-.48c.63-.3 1.5-.64 2.32-1.08l2.28-1.17.75-.38.28-.15s1.88.35 3.85.66l1.45.22 1.26.14zM148.36 170.44l-.26.18c-.16.12-.4.28-.69.46l-2.13 1.36c-.39.24-.77.5-1.14.72l-1 .59-1 .57.41-1.13c.23-.68.56-1.55.83-2.47.55-1.83 1-3.61 1-3.61l.25-.16c.16-.1.39-.24.65-.44l1.94-1.38c.35-.25.71-.49 1-.74l.87-.69.91-.7-.2 1.15c-.13.68-.29 1.64-.51 2.55-.44 1.86-.93 3.74-.93 3.74zM156.85 171.7l-1 .76-1 .78c-.37.28-.77.56-1.17.84l-2.2 1.57c-.3.22-.56.38-.74.5l-.28.18s-2-.18-4-.42c-1-.11-2-.29-2.67-.41l-1.2-.21 1-.58 1-.59c.38-.22.76-.48 1.15-.73L148 172c.3-.18.53-.35.7-.47l.26-.19s1.91.16 3.9.27c1 .06 2 .05 2.72.07zM155.34 165.08l-.87.75c-.53.44-1.26 1-2 1.57s-1.44 1.15-2 1.53l-.94.66.29-1.16.28-1.18.28-1.38c.37-1.87.67-3.68.67-3.68l.23-.19.59-.51 1.8-1.56c.66-.56 1.26-1.18 1.74-1.62l.78-.75s-.13 1.84-.33 3.75-.52 3.77-.52 3.77zM163.93 165.47l-.89.85c-.54.5-1.23 1.21-2 1.84l-2 1.77-.67.58-.26.22h-5.43l-1.26-.08-1.22-.09.95-.67c.58-.39 1.3-1 2-1.55s1.47-1.14 2-1.59l.88-.76s1.93 0 3.92-.12 3.98-.4 3.98-.4zM161.75 159l-.79.83c-.46.51-1.14 1.13-1.8 1.77s-1.32 1.27-1.83 1.74l-.87.75s.31-1.88.46-3.79c.09-.94.17-1.88.22-2.57s.07-1.16.07-1.16l2.39-2.5 2.26-2.62s.05 1.84 0 3.75c0 1 0 1.9-.08 2.61zM170.34 158.55l-2.57 3-2.71 2.85s-.48.08-1.24.14l-2.73.24c-1.95.18-3.9.2-3.9.2l.88-.76c.52-.47 1.18-1.12 1.86-1.76s1.36-1.27 1.82-1.79l.8-.84 1.21-.14c.73-.09 1.72-.21 2.67-.38 1.92-.37 3.91-.76 3.91-.76zM167.5 152.36l-.71.9c-.42.54-1 1.27-1.6 2l-1.65 1.91c-.22.26-.42.47-.56.62l-.22.23s0-.47.05-1.19 0-1.69 0-2.63v-2.57l-.07-1.17.67-.85c.39-.52 1-1.17 1.45-1.89l1.38-1.94.45-.64a2.88 2.88 0 0 0 .16-.25v.32l.1.83c.08.69.18 1.62.27 2.57s.18 1.91.2 2.62zM176 151s-.06.11-.19.28l-.52.73-1.57 2.2c-.56.81-1.2 1.56-1.64 2.15l-.76 1-1.21.28c-.73.16-1.72.34-2.69.51l-2.65.44c-.72.11-1.21.16-1.21.16l.22-.23c.14-.15.34-.36.57-.62l1.67-1.93c.62-.69 1.2-1.42 1.62-2l.72-.91 1.19-.26c.73-.15 1.66-.4 2.61-.66s1.9-.53 2.63-.75l.88-.26zM172.54 145.14l-.62 1c-.38.57-.85 1.37-1.38 2.11l-1.46 2.06-.48.68-.19.25s0-.48-.09-1.2-.14-1.67-.24-2.61-.2-1.86-.32-2.56l-.18-1.16.58-.91.6-.93c.21-.35.42-.72.64-1.1l1.19-2.06c.17-.28.29-.52.37-.69l.14-.26s.12.46.28 1.14.34 1.59.52 2.52.36 1.88.48 2.59zM180.85 142.9l-.15.3c-.1.19-.24.47-.42.78l-1.35 2.34c-.25.42-.49.86-.73 1.25l-.68 1.06-.66 1-1.18.4c-.69.24-1.66.53-2.61.79s-1.9.52-2.6.71l-1.17.3.19-.26.49-.69 1.48-2.08c.55-.75 1-1.56 1.4-2.14l.63-1 1.17-.38c.68-.24 1.59-.58 2.51-.93s1.85-.72 2.55-1 1.13-.45 1.13-.45zM176.82 137.44l-1.67 3.27-1.83 3.18s-.33-1.92-.71-3.75c-.17-.91-.42-1.84-.59-2.52l-.29-1.13.49-1c.31-.57.65-1.36 1-2.15s.72-1.57 1-2.17l.4-1 .4 1.1c.25.67.5 1.55.78 2.45s.54 1.82.74 2.52.28 1.2.28 1.2zM184.83 134.35l-.45 1.14c-.29.68-.7 1.57-1.11 2.47s-.8 1.8-1.15 2.45l-.56 1.09-1.14.52c-.68.3-1.57.71-2.51 1.06-1.85.73-3.66 1.38-3.66 1.38l1.85-3.22 1.7-3.31s.46-.19 1.1-.51 1.53-.74 2.41-1.19 1.79-.9 2.43-1.27zM180.28 129.34l-1.34 3.42c-.33.86-.74 1.68-1 2.31l-.47 1s-.52-1.87-1.08-3.65-1.27-3.54-1.27-3.54l.4-1c.23-.61.49-1.43.77-2.25s.58-1.63.74-2.26l.29-1 .51 1.06c.32.64.69 1.49 1 2.36.75 1.72 1.45 3.55 1.45 3.55zM187.92 125.43s-.51 1.9-1.17 3.75c-.32.93-.62 1.87-.88 2.56l-.45 1.14s-1.73 1-3.45 2-3.51 1.74-3.51 1.74l.48-1.06c.28-.64.69-1.47 1-2.34l1.36-3.46s1.64-1 3.32-2c.84-.53 1.68-1.08 2.27-1.52zM132.91 178.87l-3.42 1.35-3.49 1.18s1-1.66 1.95-3.28c.47-.8.9-1.67 1.22-2.29l.53-1 1-.4c.61-.22 1.39-.6 2.18-1s1.58-.7 2.16-1l1-.49s-.66 1.76-1.46 3.45c-.39.86-.8 1.72-1.11 2.38s-.56 1.1-.56 1.1zM141 181.84l-1.09.56c-.66.32-1.56.72-2.46 1.12s-1.79.83-2.48 1.08l-1.14.45-1.19-.36c-.72-.23-1.64-.5-2.58-.85-1.87-.68-3.66-1.39-3.66-1.39l3.52-1.2 3.46-1.36s.47.16 1.16.35 1.64.45 2.6.7c1.86.53 3.86.9 3.86.9zM14.65 85.76l-.18 1.15c-.1.69-.26 1.61-.38 2.53l-.34 3.7s-1.1-1.58-2.19-3.24c-.27-.42-.55-.84-.79-1.23l-.64-1.09-.63-1.08.19-1.21c.13-.73.24-1.7.44-2.67l.87-3.85s.87 1.83 1.76 3.57l.66 1.27.63 1.1zM21.73 81.33L21 84.7c-.18.84-.28 1.71-.39 2.34l-.17 1.07-.9.75-.93.79c-.34.29-.66.61-1 .93-1.37 1.28-2.74 2.65-2.74 2.65l.34-3.66c.11-.91.28-1.81.38-2.5l.18-1.13.91-.77.93-.77 1.12-.85c1.49-1.16 3-2.22 3-2.22zM16.56 77l-.32 1.12c-.21.66-.38 1.58-.59 2.49l-.55 2.5-.18.82v.32s-.25-.42-.58-1.06-.78-1.5-1.23-2.38-.88-1.78-1.21-2.46-.52-1.14-.52-1.14l1.07-3.79c.14-.47.26-1 .41-1.38l.42-1.19.41-1.16.41 1.18c.26.71.56 1.62.95 2.54.72 1.88 1.51 3.59 1.51 3.59zM24.07 73.38l-.36 1-.37 1c-.14.38-.23.8-.36 1.22L22 80s-.41.25-1 .66-1.32.95-2.08 1.51-1.52 1.14-2.1 1.59-.94.75-.94.75v-.31l.18-.81.54-2.47c.2-.89.37-1.8.58-2.46l.31-1.1s1.6-1.09 3.18-2.09c.79-.5 1.64-1 2.25-1.31zM19.34 68.57l-.12.29c-.07.19-.17.47-.28.79l-.85 2.41c-.3.88-.64 1.75-.8 2.43L17 75.61l-.49-1.12-.51-1.16-.51-1.33c-.68-1.83-1.32-3.75-1.32-3.75l.41-1.16 1-2.49 1.05-2.49.54-1.1.27 1.21c.17.72.45 1.7.72 2.65l1.18 3.7zM27.21 65.7l-.48 1-.92 2.19-.92 2.19-.36 1s-1.62.87-3.27 1.83l-1.26.7-1 .66-1 .66.31-1.1c.17-.67.5-1.53.79-2.39L20 70c.12-.32.21-.6.28-.78l.12-.29s1.73-.91 3.42-1.73c.85-.41 1.67-.81 2.32-1.09zM23 60.44l-1.64 3.34c-.41.84-.73 1.71-1 2.35l-.45 1.07s-.58-1.84-1.11-3.77c-.26-1-.46-1.91-.63-2.64l-.27-1.22.54-1.1.56-1.13c.22-.41.47-.83.71-1.26l1.94-3.42s.28 2 .61 4c.17 1 .34 1.92.47 2.63zM31.11 58.38l-1.71 3c-.21.38-.43.75-.62 1.11l-.49 1-.48 1-1.08.44c-.64.27-1.54.63-2.39 1-1.68.8-3.4 1.69-3.4 1.69l.44-1.06c.28-.63.6-1.49 1-2.32L24 60.95l1.09-.46c.68-.26 1.58-.59 2.48-.91 1.8-.64 3.54-1.2 3.54-1.2zM27.52 52.74l-.63 1c-.37.59-.91 1.35-1.35 2.17l-1.84 3.23s-.36-1.88-.68-3.84-.52-3.94-.52-3.94L24.65 48 27 44.87s.06 2 .17 4c0 1 .16 2 .24 2.69zM35.79 51.53l-2 2.79-1.88 2.9s-1.83.48-3.58 1.12-3.6 1.31-3.6 1.31l1.81-3.19c.43-.81 1-1.56 1.33-2.14l.62-1 1.1-.32c.69-.2 1.57-.47 2.52-.67 1.89-.44 3.68-.8 3.68-.8zM32.78 45.53l-.74.89c-.45.53-1 1.3-1.53 2L29 50.53c-.21.28-.37.52-.48.69l-.17.27s-.06-.49-.12-1.22-.11-1.69-.16-2.67-.09-2-.11-2.74V43.6l2.51-3c.32-.38.62-.76.93-1.11l.86-.92.84-.9-.1 1.22c0 .75-.14 1.7-.15 2.71-.09 2-.07 3.93-.07 3.93zM41.13 45.18l-.74.79-.76.81c-.27.3-.54.64-.81 1l-2.21 2.66-.31.06-.82.16-2.48.52c-.92.21-1.86.43-2.57.61s-1.15.32-1.15.32l.17-.26c.11-.17.26-.41.47-.68l1.5-2c.55-.73 1.07-1.49 1.51-2l.73-.88s1.91-.35 3.75-.63c.91-.15 1.89-.22 2.58-.3zM38.73 38.88l-.23.22-.58.61-1.74 1.87c-.63.68-1.28 1.35-1.71 1.9l-.74.89v-2.48c0-.46 0-.94.08-1.43.12-1.95.3-4 .3-4l.84-.9 2-1.87 2-1.86.94-.8-.23 1.22c-.14.72-.26 1.74-.4 2.71-.34 2.04-.53 3.92-.53 3.92zM47.09 39.4l-.83.7-1.72 1.64-1.72 1.64-.74.79s-1.84.15-3.74.36c-.47.05-1 .1-1.4.17l-1.19.19-1.18.2.73-.88c.42-.54 1.06-1.21 1.69-1.88l1.72-1.85.57-.61.23-.22s1.95-.14 3.83-.21c.95 0 1.86-.08 2.57-.07zM45.35 32.9l-2.84 2.41c-.71.6-1.36 1.27-1.87 1.74l-.84.8s.21-1.92.49-3.9c.15-1 .34-1.93.48-2.67l.23-1.22.94-.79 1-.81 1.15-.87 3.14-2.36s-.55 2-1 3.87c-.24 1-.46 1.9-.62 2.6zM53.59 34.25l-2.76 2.08-1 .76-.84.72-.82.7H44.4c-1.86.06-3.79.19-3.79.19l.83-.79c.51-.47 1.14-1.13 1.85-1.72l2.8-2.37h1.19l2.63.16c1.86.08 3.68.27 3.68.27zM16.07 121.18s.1.46.3 1.12l.7 2.46c.24.9.55 1.78.77 2.44l.37 1.1-1-.64c-.62-.39-1.47-.91-2.28-1.46-1.61-1.1-3.24-2.3-3.24-2.3s-.14-.47-.33-1.18l-.61-2.64c-.23-1-.44-1.92-.56-2.65l-.22-1.21.94.82c.56.49 1.3 1.13 2.09 1.75 1.53 1.21 3.07 2.39 3.07 2.39zM20.81 114.29l.19 1.06c.1.64.29 1.48.49 2.32L22 120c.17.63.29 1 .29 1s-.82 1.65-1.62 3.39c-.39.87-.73 1.74-1 2.4l-.44 1.12-.37-1.09c-.22-.65-.53-1.52-.76-2.41l-.67-2.41c-.2-.66-.29-1.11-.29-1.11s.87-1.74 1.77-3.39c.43-.82.93-1.64 1.29-2.24zM14.35 112.43v.32c0 .2.06.49.13.83l.52 2.52.24 1.34.27 1.16.26 1.13-1-.74c-.57-.45-1.38-1.05-2.11-1.69-1.49-1.26-3-2.62-3-2.62l-.06-.33c0-.21-.09-.51-.13-.88l-.34-2.68-.18-1.43-.1-1.26-.09-1.22.85.91c.52.54 1.16 1.26 1.9 2 1.42 1.34 2.84 2.64 2.84 2.64zM19.78 106.06l.08 1.08.08 1.11.16 1.26.3 2.36c0 .32.08.59.12.77l.05.29s-1 1.56-2 3.21c-.5.83-.92 1.65-1.26 2.29l-.55 1.06-.26-1.12-.26-1.15-.24-1.33-.44-2.48c-.07-.34-.1-.62-.12-.82v-.31s1-1.64 2.1-3.19c.51-.77 1.11-1.54 1.52-2.1zM13.54 103.54v1.16l.19 2.55c.07.93.14 1.85.24 2.54l.15 1.15-.89-.83c-.53-.5-1.26-1.19-1.92-1.9-1.35-1.41-2.71-2.91-2.71-2.91s-.05-.49-.06-1.23l-.07-2.7v-3.93l.75 1c.46.59 1 1.37 1.68 2.13 1.36 1.54 2.64 2.97 2.64 2.97zM19.6 97.76V101.22l.06 2.38c0 .65.05 1.08.05 1.08s-1.13 1.45-2.26 3c-.58.77-1.1 1.55-1.49 2.15l-.66 1-.14-1.14c-.1-.68-.17-1.6-.24-2.51l-.19-2.52v-1.15s1.21-1.52 2.41-3c.58-.72 1.27-1.42 1.74-1.93zM13.61 94.62l-.12 3.72c0 .93-.07 1.86 0 2.56v1.16l-.8-.92c-.48-.56-1.13-1.31-1.71-2.08-1.2-1.54-2.39-3.17-2.39-3.17v-1.23c0-.74.14-1.71.22-2.69l.25-2.69a12.14 12.14 0 0 1 .15-1.22l.17.29c.1.19.27.45.48.77.41.64 1 1.48 1.5 2.3s1.1 1.63 1.51 2.22l.5.71zM20.22 89.48a9.55 9.55 0 0 0-.13 1.07l-.22 2.37c-.07.86-.18 1.72-.2 2.37v1.08s-1.28 1.33-2.57 2.74c-.66.71-1.26 1.43-1.71 2l-.75.93v-1.15-2.52l.11-3.67.23-.24.62-.62c.52-.51 1.2-1.18 1.89-1.83s1.37-1.28 1.88-1.75c.25-.23.47-.43.63-.56zM58.62 176l.28.15.75.38 2.28 1.17c.82.44 1.69.78 2.32 1.08l1.06.48s-1.85.53-3.79 1-3.88.81-3.88.81l-1.09-.56c-.65-.35-1.49-.85-2.35-1.34s-1.71-1-2.32-1.38l-1-.66 1.24-.13 1.26-.14 1.45-.22c1.9-.26 3.79-.64 3.79-.64zM56.77 167.86l.91.58c.54.37 1.3.78 2 1.21s1.49.87 2.06 1.18l1 .49s.65 1.73 1.39 3.5 1.6 3.45 1.6 3.45l-1-.47c-.62-.3-1.48-.63-2.29-1.07l-2.25-1.15-.74-.38-.28-.15s-.68-1.83-1.28-3.61l-.43-1.3-.37-1.14zM51 171.35l.26.19c.16.12.4.29.7.47l2.15 1.38c.39.25.78.51 1.15.73l1 .59 1 .58-1.2.21c-.72.11-1.71.3-2.67.41-1.94.24-4 .42-4 .42l-.28-.18c-.18-.12-.44-.28-.74-.5l-2.2-1.57c-.4-.29-.81-.56-1.17-.84l-1-.78-1-.76h1.4c.75 0 1.72 0 2.72-.07 1.98-.11 3.88-.28 3.88-.28zM50 163l.85.67.87.69c.32.25.68.49 1 .74l1.94 1.38c.26.19.49.34.65.44l.25.16s.48 1.78 1 3.61c.27.92.6 1.79.83 2.47l.41 1.13-1-.57-1-.59c-.37-.22-.75-.48-1.14-.72l-2.13-1.36c-.29-.18-.53-.35-.69-.46l-.26-.18s-.5-1.88-.92-3.7c-.22-.91-.38-1.86-.51-2.55zM43.94 165.92l.88.76c.54.44 1.28 1 2 1.59s1.45 1.16 2 1.55l.95.67-1.22.09-1.26.08h-5.43l-.26-.22-.67-.58-2-1.77c-.75-.64-1.43-1.34-2-1.84l-.89-.85s2 .2 4 .33 3.9.19 3.9.19zM43.79 157.56l.78.75c.48.44 1.08 1.07 1.74 1.62l1.8 1.56.59.51.23.19s.3 1.81.67 3.68l.28 1.38.28 1.18.29 1.16-.94-.66c-.57-.38-1.28-1-2-1.53s-1.45-1.13-2-1.57l-.87-.75s-.31-1.91-.54-3.77-.31-3.75-.31-3.75zM37.45 159.79l.8.84c.47.52 1.15 1.15 1.82 1.79s1.34 1.29 1.86 1.76l.88.76s-2 0-3.9-.2l-2.73-.24c-.76-.07-1.24-.14-1.24-.14l-2.71-2.85-2.57-3s2 .4 3.91.72c1 .18 1.95.29 2.67.38zM38.15 151.47l2.26 2.62 2.39 2.5s0 .48.07 1.16.13 1.62.22 2.57c.16 1.91.46 3.79.46 3.79l-.87-.75c-.51-.46-1.17-1.11-1.83-1.74s-1.34-1.26-1.8-1.77l-.79-.83-.07-1.2c0-.72-.09-1.65-.08-2.61-.01-1.9.04-3.74.04-3.74zM31.63 153l.72.91c.43.55 1 1.28 1.62 2l1.67 1.93c.22.27.42.48.57.62l.22.23s-.49-.05-1.21-.16l-2.65-.44c-1-.17-2-.36-2.69-.51l-1.21-.28-.76-1c-.44-.59-1.09-1.33-1.64-2.15L24.7 152l-.52-.73c-.13-.17-.19-.28-.19-.28l.33.11.88.26c.72.21 1.68.49 2.63.75s1.88.51 2.61.66zM33.17 144.84a2.87 2.87 0 0 0 .16.25l.45.64 1.38 1.94c.49.72 1.06 1.37 1.45 1.89l.67.85-.07 1.17V156.78l.05 1.19-.22-.23c-.14-.14-.34-.35-.56-.62l-1.65-1.91c-.61-.68-1.18-1.41-1.6-2l-.71-.9.05-1.19c0-.7.11-1.67.2-2.62s.19-1.88.27-2.57l.1-.83zM26.52 145.72l.63 1c.39.58.86 1.38 1.4 2.14l1.45 2.06.49.69.19.26-1.17-.3c-.7-.18-1.65-.44-2.6-.71s-1.92-.55-2.61-.79l-1.18-.4-.66-1-.68-1.06c-.24-.39-.48-.82-.73-1.25L19.73 144c-.19-.32-.33-.59-.42-.78l-.15-.3s.45.21 1.14.5 1.63.65 2.55 1 1.83.69 2.51.93zM28.91 137.72l.09.28c.09.17.21.41.37.69l1.19 2.06c.22.37.42.75.64 1.1l.6.93.58.91-.18 1.16c-.12.71-.22 1.63-.32 2.56s-.18 1.89-.24 2.61-.09 1.2-.09 1.2l-.15-.22-.48-.68-1.46-2.06c-.54-.74-1-1.54-1.38-2.11l-.62-1 .17-1.18c.12-.71.3-1.66.48-2.59s.37-1.84.52-2.52.28-1.14.28-1.14zM22.19 137.92l1.7 3.31 1.85 3.22s-1.81-.65-3.66-1.38c-.94-.35-1.82-.76-2.51-1.06l-1.14-.52-.56-1.09c-.35-.65-.74-1.55-1.15-2.45s-.82-1.79-1.11-2.47l-.45-1.14 1.08.62c.64.37 1.55.82 2.43 1.27s1.76.87 2.41 1.19 1.11.5 1.11.5zM25.4 130.2l.4 1c.26.6.62 1.38 1 2.17s.7 1.58 1 2.15l.49 1-.29 1.09c-.17.68-.42 1.61-.59 2.52-.38 1.83-.71 3.75-.71 3.75l-1.83-3.18-1.67-3.27s.1-.46.3-1.16.46-1.62.74-2.52.54-1.78.78-2.45zM18.68 129.72l1.32 3.46c.33.87.75 1.7 1 2.34l.48 1.06s-1.74-.83-3.51-1.74-3.45-2-3.45-2l-.45-1.14c-.26-.69-.56-1.63-.88-2.56-.67-1.85-1.17-3.75-1.17-3.75l1 .72c.59.43 1.43 1 2.27 1.52 1.71 1.11 3.39 2.09 3.39 2.09zM22.7 122.36l.29 1c.16.63.47 1.44.74 2.26s.54 1.64.77 2.25l.4 1s-.66 1.73-1.27 3.54-1.08 3.65-1.08 3.65l-.47-1c-.27-.63-.69-1.45-1-2.31l-1.34-3.42s.7-1.82 1.42-3.56c.36-.87.73-1.72 1-2.36zM66.66 179.89l3.46 1.36 3.52 1.2s-1.78.71-3.66 1.39c-.94.36-1.87.62-2.58.85l-1.2.36-1.14-.45c-.69-.25-1.58-.68-2.48-1.08s-1.8-.8-2.46-1.12l-1.12-.56s2-.37 3.88-.9c1-.25 1.9-.51 2.6-.7s1.18-.35 1.18-.35zM64 172l1 .49c.58.28 1.38.63 2.16 1s1.57.73 2.18 1l1 .4.53 1c.32.62.75 1.49 1.22 2.29.91 1.56 1.91 3.22 1.91 3.22l-3.48-1.18-3.42-1.35s-.23-.41-.54-1.07-.72-1.52-1.11-2.38C64.64 173.72 64 172 64 172z"/><path class="cls-2" d="M184.26 85.94l.18 1.13c.1.68.26 1.59.38 2.5l.34 3.66s-1.38-1.37-2.74-2.65c-.35-.32-.67-.64-1-.93l-.93-.79-.9-.75-.19-1.11c-.11-.64-.21-1.5-.39-2.34l-.74-3.38s1.5 1.06 3 2.21l1.12.85.93.77zM189 78.77l.84 3.84c.2 1 .32 1.94.44 2.67l.19 1.21-.62 1.08-.64 1.09c-.24.4-.52.82-.79 1.23-1.09 1.67-2.19 3.24-2.19 3.24l-.34-3.7c-.12-.92-.28-1.84-.38-2.53l-.18-1.15.62-1.05.63-1.1.66-1.27c.91-1.73 1.76-3.56 1.76-3.56zM182.37 77.34l.31 1.1c.21.66.38 1.56.58 2.46l.54 2.47.18.81v.31s-.36-.31-.94-.75-1.34-1-2.1-1.59-1.51-1.11-2.08-1.51-1-.66-1-.66l-.86-3.32c-.12-.41-.22-.84-.36-1.22l-.37-1-.36-1 1 .57c.61.35 1.46.81 2.25 1.31 1.61.93 3.21 2.02 3.21 2.02zM186.35 69.72l.41 1.16.42 1.19c.15.43.27.91.41 1.38l1.07 3.79s-.18.46-.52 1.14-.77 1.58-1.21 2.46-.89 1.75-1.23 2.38-.58 1.06-.58 1.06v-.32l-.18-.82-.55-2.5c-.21-.91-.37-1.82-.59-2.49l-.36-1.15s.79-1.76 1.56-3.61c.38-.92.69-1.84.95-2.54zM179.63 69l.12.29c.07.19.16.46.28.78l.84 2.38c.3.87.63 1.73.79 2.39l.31 1.1-1-.66-1-.66-1.22-.71c-1.65-1-3.27-1.83-3.27-1.83l-.36-1-.92-2.19-.92-2.19-.48-1 1.09.45c.65.28 1.47.68 2.32 1.09 1.69.82 3.42 1.76 3.42 1.76zM182.78 61l.54 1.1 1.05 2.49 1 2.49.41 1.16s-.64 1.92-1.32 3.75l-.5 1.34-.49 1.17-.47 1.11-.32-1.12c-.17-.68-.5-1.55-.8-2.43l-.85-2.41c-.12-.33-.21-.6-.28-.79l-.12-.29s.58-1.82 1.13-3.73c.27-.95.55-1.93.72-2.65zM176 60.95l1.62 3.29c.4.82.72 1.69 1 2.32l.44 1.06s-1.72-.89-3.4-1.69c-.85-.4-1.75-.76-2.39-1l-1.08-.44-.48-1-.49-1c-.19-.36-.41-.73-.62-1.11l-1.71-3s1.74.56 3.53 1.19c.89.32 1.8.65 2.48.91zM178.34 52.66l1.94 3.42c.24.43.49.85.71 1.26l.56 1.13.54 1.1-.27 1.22c-.17.73-.37 1.68-.63 2.64-.54 1.93-1.11 3.77-1.11 3.77l-.45-1.07c-.28-.64-.61-1.51-1-2.35L177 60.44l.28-1.2c.14-.71.31-1.66.47-2.63.31-1.94.59-3.95.59-3.95zM171.55 53.34l.62 1c.37.58.9 1.33 1.33 2.14l1.81 3.19s-1.82-.69-3.6-1.31-3.58-1.12-3.58-1.12l-1.88-2.9-2-2.79s1.81.36 3.67.8c.95.21 1.83.48 2.52.67zM173 44.87l2.35 3.13 2.14 3.3s-.17 2-.52 3.94-.68 3.84-.68 3.84l-1.84-3.23c-.44-.82-1-1.58-1.35-2.17l-.63-1 .14-1.21c.08-.73.2-1.73.24-2.69.15-1.89.15-3.91.15-3.91zM166.37 46.22l.73.88c.45.52 1 1.29 1.51 2l1.5 2c.21.27.36.52.47.68l.17.26s-.45-.14-1.15-.32-1.64-.4-2.57-.61l-2.52-.54-.82-.16-.31-.06-2.21-2.66c-.28-.33-.55-.67-.81-1l-.76-.81-.74-.79 1.16.11c.69.08 1.67.15 2.58.3 1.86.37 3.77.72 3.77.72zM167 37.65l.84.9.86.92c.3.35.61.73.93 1.11l2.51 3v1.27c0 .75-.06 1.75-.11 2.74s-.11 2-.16 2.67-.12 1.22-.12 1.22l-.17-.27c-.11-.17-.27-.42-.48-.69l-1.51-2.06c-.56-.74-1.08-1.51-1.53-2l-.74-.89v-3.92c0-1-.11-2-.15-2.71zM160.49 39.66l.23.22.57.61 1.71 1.84c.63.67 1.26 1.33 1.69 1.88l.73.88-1.18-.2-1.19-.19c-.44-.06-.92-.11-1.4-.17-1.9-.21-3.74-.36-3.74-.36l-.74-.79-1.72-1.64-1.72-1.64-.83-.7h1.18c.71 0 1.62 0 2.57.07 1.89.05 3.84.19 3.84.19zM160.18 31.08l.94.8 2 1.86 2 1.87.84.9s.18 2 .3 4c0 .49.06 1 .08 1.43v2.49l-.74-.89c-.43-.55-1.07-1.22-1.71-1.9l-1.74-1.87-.58-.61-.23-.22s-.19-1.9-.46-3.87c-.13-1-.26-2-.4-2.71zM153.95 33.76l2.8 2.37c.7.59 1.34 1.26 1.85 1.72l.83.79s-1.93-.12-3.79-.19h-3.77l-.82-.7-.84-.72-1-.76-2.76-2.08s1.82-.18 3.72-.31l2.63-.16zM152.79 25.23l3.14 2.36 1.15.87 1 .81.94.79.24 1.22c.14.74.33 1.69.48 2.67.28 2 .49 3.9.49 3.9l-.84-.8c-.51-.47-1.16-1.14-1.87-1.74l-2.84-2.41-.23-1.21c-.16-.7-.38-1.65-.62-2.6-.5-1.9-1.04-3.86-1.04-3.86zM182.86 120.91s-.09.45-.29 1.11l-.69 2.43c-.23.89-.54 1.75-.76 2.41l-.37 1.09-.44-1.12c-.27-.67-.61-1.54-1-2.4-.8-1.74-1.62-3.39-1.62-3.39s.12-.41.29-1l.53-2.32c.2-.84.39-1.68.49-2.32l.19-1.06.61 1c.37.6.86 1.42 1.29 2.24.91 1.59 1.77 3.33 1.77 3.33zM190.06 116.24l-.22 1.21c-.11.73-.33 1.69-.56 2.65l-.61 2.64c-.19.71-.33 1.18-.33 1.18s-1.63 1.2-3.24 2.3c-.81.55-1.67 1.07-2.28 1.46l-1 .64.37-1.1c.22-.66.54-1.54.77-2.44l.7-2.46c.2-.67.3-1.12.3-1.12s1.54-1.14 3.1-2.38c.79-.61 1.53-1.26 2.09-1.75zM184.56 112.27v.31c0 .2-.06.48-.12.82l-.44 2.48-.24 1.33-.26 1.15-.26 1.12-.55-1.06c-.34-.64-.75-1.46-1.26-2.29-1-1.65-2-3.21-2-3.21l.05-.29c0-.19.08-.45.12-.77l.3-2.36.16-1.26.08-1.11.08-1.08.71.93c.42.56 1 1.33 1.52 2.1 1.06 1.55 2.11 3.19 2.11 3.19zM191.24 106.88l-.09 1.22-.1 1.26-.18 1.43-.34 2.68c0 .37-.09.67-.13.88l-.06.33s-1.5 1.36-3 2.62c-.73.64-1.54 1.24-2.11 1.69l-1 .74.26-1.13.27-1.16.24-1.34.45-2.52c.07-.34.1-.63.13-.83v-.32s1.42-1.3 2.85-2.68c.73-.69 1.38-1.41 1.9-2zM185.36 103.5v1.15l-.19 2.52c-.06.92-.13 1.83-.24 2.51l-.14 1.14-.66-1c-.39-.6-.91-1.38-1.49-2.15-1.13-1.54-2.26-3-2.26-3s.05-.43.05-1.08l.06-2.38v-3.46l.8.85c.47.52 1.16 1.22 1.74 1.93 1.12 1.47 2.33 2.97 2.33 2.97zM191.45 97.46v3.93l-.07 2.7c0 .74-.06 1.23-.06 1.23s-1.36 1.5-2.71 2.91c-.66.71-1.38 1.39-1.92 1.9l-.89.83.15-1.15c.1-.69.18-1.62.24-2.54l.19-2.55v-1.16s1.28-1.43 2.56-3c.66-.76 1.22-1.54 1.68-2.13zM185.28 94.69l.11 3.67c0 .92.07 1.84 0 2.52v1.15l-.75-.93c-.45-.55-1-1.28-1.71-2-1.29-1.42-2.57-2.74-2.57-2.74v-1.08c0-.65-.13-1.51-.2-2.37l-.22-2.37a9.55 9.55 0 0 0-.13-1.07l.25.21c.16.13.38.32.63.56.51.47 1.19 1.1 1.88 1.75s1.37 1.32 1.89 1.83l.62.62zM190.74 88.05a12.13 12.13 0 0 1 .15 1.22l.25 2.69c.08 1 .2 2 .22 2.69v1.23s-1.19 1.63-2.39 3.17c-.58.77-1.22 1.53-1.71 2.08l-.8.92v-1.16-2.56l-.12-3.72.19-.27.5-.71c.41-.59 1-1.4 1.51-2.22s1.09-1.66 1.5-2.3c.21-.32.37-.59.48-.77zM140.86 175.06l-.28.15-.74.38-2.25 1.15c-.81.43-1.67.77-2.29 1.07l-1 .47s.84-1.75 1.6-3.45 1.39-3.5 1.39-3.5l1-.49c.57-.31 1.31-.75 2.06-1.18s1.51-.85 2-1.21l.91-.58-.32 1.13-.34 1.16-.43 1.3c-.63 1.78-1.31 3.6-1.31 3.6zM149.17 177.17l-1 .66c-.61.41-1.47.89-2.32 1.38s-1.7 1-2.35 1.34l-1.09.56s-2-.38-3.88-.81-3.79-1-3.79-1l1.06-.48c.63-.3 1.5-.64 2.32-1.08l2.28-1.17.75-.38.28-.15s1.88.35 3.85.66l1.45.22 1.26.14zM148.36 170.44l-.26.18c-.16.12-.4.28-.69.46l-2.13 1.36c-.39.24-.77.5-1.14.72l-1 .59-1 .57.41-1.13c.23-.68.56-1.55.83-2.47.55-1.83 1-3.61 1-3.61l.25-.16c.16-.1.39-.24.65-.44l1.94-1.38c.35-.25.71-.49 1-.74l.87-.69.91-.7-.2 1.15c-.13.68-.29 1.64-.51 2.55-.44 1.86-.93 3.74-.93 3.74zM156.85 171.7l-1 .76-1 .78c-.37.28-.77.56-1.17.84l-2.2 1.57c-.3.22-.56.38-.74.5l-.28.18s-2-.18-4-.42c-1-.11-2-.29-2.67-.41l-1.2-.21 1-.58 1-.59c.38-.22.76-.48 1.15-.73L148 172c.3-.18.53-.35.7-.47l.26-.19s1.91.16 3.9.27c1 .06 2 .05 2.72.07zM155.34 165.08l-.87.75c-.53.44-1.26 1-2 1.57s-1.44 1.15-2 1.53l-.94.66.29-1.16.28-1.18.28-1.38c.37-1.87.67-3.68.67-3.68l.23-.19.59-.51 1.8-1.56c.66-.56 1.26-1.18 1.74-1.62l.78-.75s-.13 1.84-.33 3.75-.52 3.77-.52 3.77zM163.93 165.47l-.89.85c-.54.5-1.23 1.21-2 1.84l-2 1.77-.67.58-.26.22h-5.43l-1.26-.08-1.22-.09.95-.67c.58-.39 1.3-1 2-1.55s1.47-1.14 2-1.59l.88-.76s1.93 0 3.92-.12 3.98-.4 3.98-.4zM161.75 159l-.79.83c-.46.51-1.14 1.13-1.8 1.77s-1.32 1.27-1.83 1.74l-.87.75s.31-1.88.46-3.79c.09-.94.17-1.88.22-2.57s.07-1.16.07-1.16l2.39-2.5 2.26-2.62s.05 1.84 0 3.75c0 1 0 1.9-.08 2.61zM170.34 158.55l-2.57 3-2.71 2.85s-.48.08-1.24.14l-2.73.24c-1.95.18-3.9.2-3.9.2l.88-.76c.52-.47 1.18-1.12 1.86-1.76s1.36-1.27 1.82-1.79l.8-.84 1.21-.14c.73-.09 1.72-.21 2.67-.38 1.92-.37 3.91-.76 3.91-.76zM167.5 152.36l-.71.9c-.42.54-1 1.27-1.6 2l-1.65 1.91c-.22.26-.42.47-.56.62l-.22.23s0-.47.05-1.19 0-1.69 0-2.63v-2.57l-.07-1.17.67-.85c.39-.52 1-1.17 1.45-1.89l1.38-1.94.45-.64a2.88 2.88 0 0 0 .16-.25v.32l.1.83c.08.69.18 1.62.27 2.57s.18 1.91.2 2.62zM176 151s-.06.11-.19.28l-.52.73-1.57 2.2c-.56.81-1.2 1.56-1.64 2.15l-.76 1-1.21.28c-.73.16-1.72.34-2.69.51l-2.65.44c-.72.11-1.21.16-1.21.16l.22-.23c.14-.15.34-.36.57-.62l1.67-1.93c.62-.69 1.2-1.42 1.62-2l.72-.91 1.19-.26c.73-.15 1.66-.4 2.61-.66s1.9-.53 2.63-.75l.88-.26zM172.54 145.14l-.62 1c-.38.57-.85 1.37-1.38 2.11l-1.46 2.06-.48.68-.19.25s0-.48-.09-1.2-.14-1.67-.24-2.61-.2-1.86-.32-2.56l-.18-1.16.58-.91.6-.93c.21-.35.42-.72.64-1.1l1.19-2.06c.17-.28.29-.52.37-.69l.14-.26s.12.46.28 1.14.34 1.59.52 2.52.36 1.88.48 2.59zM180.85 142.9l-.15.3c-.1.19-.24.47-.42.78l-1.35 2.34c-.25.42-.49.86-.73 1.25l-.68 1.06-.66 1-1.18.4c-.69.24-1.66.53-2.61.79s-1.9.52-2.6.71l-1.17.3.19-.26.49-.69 1.48-2.08c.55-.75 1-1.56 1.4-2.14l.63-1 1.17-.38c.68-.24 1.59-.58 2.51-.93s1.85-.72 2.55-1 1.13-.45 1.13-.45zM176.82 137.44l-1.67 3.27-1.83 3.18s-.33-1.92-.71-3.75c-.17-.91-.42-1.84-.59-2.52l-.29-1.13.49-1c.31-.57.65-1.36 1-2.15s.72-1.57 1-2.17l.4-1 .4 1.1c.25.67.5 1.55.78 2.45s.54 1.82.74 2.52.28 1.2.28 1.2zM184.83 134.35l-.45 1.14c-.29.68-.7 1.57-1.11 2.47s-.8 1.8-1.15 2.45l-.56 1.09-1.14.52c-.68.3-1.57.71-2.51 1.06-1.85.73-3.66 1.38-3.66 1.38l1.85-3.22 1.7-3.31s.46-.19 1.1-.51 1.53-.74 2.41-1.19 1.79-.9 2.43-1.27zM180.28 129.34l-1.34 3.42c-.33.86-.74 1.68-1 2.31l-.47 1s-.52-1.87-1.08-3.65-1.27-3.54-1.27-3.54l.4-1c.23-.61.49-1.43.77-2.25s.58-1.63.74-2.26l.29-1 .51 1.06c.32.64.69 1.49 1 2.36.75 1.72 1.45 3.55 1.45 3.55zM187.92 125.43s-.51 1.9-1.17 3.75c-.32.93-.62 1.87-.88 2.56l-.45 1.14s-1.73 1-3.45 2-3.51 1.74-3.51 1.74l.48-1.06c.28-.64.69-1.47 1-2.34l1.36-3.46s1.64-1 3.32-2c.84-.53 1.68-1.08 2.27-1.52zM132.91 178.87l-3.42 1.35-3.49 1.18s1-1.66 1.95-3.28c.47-.8.9-1.67 1.22-2.29l.53-1 1-.4c.61-.22 1.39-.6 2.18-1s1.58-.7 2.16-1l1-.49s-.66 1.76-1.46 3.45c-.39.86-.8 1.72-1.11 2.38s-.56 1.1-.56 1.1zM141 181.84l-1.09.56c-.66.32-1.56.72-2.46 1.12s-1.79.83-2.48 1.08l-1.14.45-1.19-.36c-.72-.23-1.64-.5-2.58-.85-1.87-.68-3.66-1.39-3.66-1.39l3.52-1.2 3.46-1.36s.47.16 1.16.35 1.64.45 2.6.7c1.86.53 3.86.9 3.86.9zM146.89 28.51l.27.17.68.48 2.06 1.46c.75.53 1.5 1.05 2 1.5l.89.72h-1.19l-1.21.05c-.44 0-.93.07-1.4.12-1.91.17-3.73.4-3.73.4l-.88-.63-2-1.26-2-1.26-.95-.52 1.15-.26c.7-.15 1.6-.29 2.53-.45l3.78-.52zM144.87 20.17l1.08.59 2.29 1.43 2.29 1.44 1 .71s.58 1.94 1.09 3.82c.13.47.26.94.36 1.39l.27 1.24.25 1.2-.91-.73c-.53-.45-1.3-1-2.05-1.52l-2.08-1.48-.69-.49-.27-.17s-.57-1.82-1.22-3.7c-.33-.93-.65-1.9-.94-2.58zM139.3 24l3.22 1.76c.81.44 1.56 1 2.15 1.32l1 .61s-1.92.27-3.75.58c-.93.17-1.86.39-2.55.54l-1.14.26-.95-.52-1-.53-1.15-.54L132 26s1.75-.54 3.58-1.05c.91-.25 1.84-.5 2.55-.68zM136.45 15.92L140 17.6l1.3.62 1.11.6 1.08.59.48 1.15c.28.69.66 1.59 1 2.52.67 1.88 1.26 3.72 1.26 3.72l-1-.62c-.6-.36-1.36-.89-2.18-1.33l-3.26-1.79-.47-1.14c-.3-.66-.7-1.54-1.13-2.43-.81-1.76-1.74-3.57-1.74-3.57zM130.47 23.02l8.39.04-6.15-5.7-8.39-.04 6.15 5.7zM53 28.51l-.27.17-.68.48L50 30.62c-.75.53-1.5 1.05-2 1.5l-.89.72h1.19l1.21.05c.44 0 .93.07 1.4.12 1.91.17 3.73.4 3.73.4l.88-.63 2-1.26 2-1.26.95-.52-1.15-.26c-.7-.15-1.6-.29-2.53-.45-1.85-.26-3.79-.52-3.79-.52zM55 20.17l-1.08.59-2.29 1.43-2.29 1.44-1 .71s-.58 1.94-1.09 3.82c-.13.47-.26.94-.36 1.39l-.27 1.24-.23 1.21.91-.73c.53-.45 1.3-1 2.05-1.52l2.08-1.48.69-.49.27-.17s.57-1.82 1.22-3.7c.33-.93.65-1.9.94-2.58zM60.6 24l-3.22 1.76c-.81.44-1.56 1-2.15 1.32l-1 .61s1.92.27 3.75.58c.93.17 1.86.39 2.55.54l1.14.26.95-.52 1-.53 1.15-.54L67.88 26s-1.74-.51-3.58-1c-.91-.25-1.84-.5-2.55-.68zM63.44 15.92l-3.55 1.68-1.3.62-1.11.6-1.08.59-.48 1.15c-.28.69-.66 1.59-1 2.52-.67 1.88-1.26 3.72-1.26 3.72l1-.62c.6-.36 1.36-.89 2.18-1.33l3.26-1.79.47-1.14c.3-.66.7-1.54 1.13-2.43.82-1.76 1.74-3.57 1.74-3.57zM69.42 23.02l-8.38.04 6.15-5.7 8.38-.04-6.15 5.7zM14.65 85.76l-.18 1.15c-.1.69-.26 1.61-.38 2.53l-.34 3.7s-1.1-1.58-2.19-3.24c-.27-.42-.55-.84-.79-1.23l-.64-1.09-.63-1.08.19-1.21c.13-.73.24-1.7.44-2.67l.87-3.85s.87 1.83 1.76 3.57l.66 1.27.63 1.1zM21.73 81.33L21 84.7c-.18.84-.28 1.71-.39 2.34l-.17 1.07-.9.75-.93.79c-.34.29-.66.61-1 .93-1.37 1.28-2.74 2.65-2.74 2.65l.34-3.66c.11-.91.28-1.81.38-2.5l.18-1.13.91-.77.93-.77 1.12-.85c1.49-1.16 3-2.22 3-2.22zM16.56 77l-.32 1.12c-.21.66-.38 1.58-.59 2.49l-.55 2.5-.18.82v.32s-.25-.42-.58-1.06-.78-1.5-1.23-2.38-.88-1.78-1.21-2.46-.52-1.14-.52-1.14l1.07-3.79c.14-.47.26-1 .41-1.38l.42-1.19.41-1.16.41 1.18c.26.71.56 1.62.95 2.54.72 1.88 1.51 3.59 1.51 3.59zM24.07 73.38l-.36 1-.37 1c-.14.38-.23.8-.36 1.22L22 80s-.41.25-1 .66-1.32.95-2.08 1.51-1.52 1.14-2.1 1.59-.94.75-.94.75v-.31l.18-.81.54-2.47c.2-.89.37-1.8.58-2.46l.31-1.1s1.6-1.09 3.18-2.09c.79-.5 1.64-1 2.25-1.31zM19.34 68.57l-.12.29c-.07.19-.17.47-.28.79l-.85 2.41c-.3.88-.64 1.75-.8 2.43L17 75.61l-.49-1.12-.51-1.16-.51-1.33c-.68-1.83-1.32-3.75-1.32-3.75l.41-1.16 1-2.49 1.05-2.49.54-1.1.27 1.21c.17.72.45 1.7.72 2.65l1.18 3.7zM27.21 65.7l-.48 1-.92 2.19-.92 2.19-.36 1s-1.62.87-3.27 1.83l-1.26.7-1 .66-1 .66.31-1.1c.17-.67.5-1.53.79-2.39L20 70c.12-.32.21-.6.28-.78l.12-.29s1.73-.91 3.42-1.73c.85-.41 1.67-.81 2.32-1.09zM23 60.44l-1.64 3.34c-.41.84-.73 1.71-1 2.35l-.45 1.07s-.58-1.84-1.11-3.77c-.26-1-.46-1.91-.63-2.64l-.27-1.22.54-1.1.56-1.13c.22-.41.47-.83.71-1.26l1.94-3.42s.28 2 .61 4c.17 1 .34 1.92.47 2.63zM31.11 58.38l-1.71 3c-.21.38-.43.75-.62 1.11l-.49 1-.48 1-1.08.44c-.64.27-1.54.63-2.39 1-1.68.8-3.4 1.69-3.4 1.69l.44-1.06c.28-.63.6-1.49 1-2.32L24 60.95l1.09-.46c.68-.26 1.58-.59 2.48-.91 1.8-.64 3.54-1.2 3.54-1.2zM27.52 52.74l-.63 1c-.37.59-.91 1.35-1.35 2.17l-1.84 3.23s-.36-1.88-.68-3.84-.52-3.94-.52-3.94L24.65 48 27 44.87s.06 2 .17 4c0 1 .16 2 .24 2.69zM35.79 51.53l-2 2.79-1.88 2.9s-1.83.48-3.58 1.12-3.6 1.31-3.6 1.31l1.81-3.19c.43-.81 1-1.56 1.33-2.14l.62-1 1.1-.32c.69-.2 1.57-.47 2.52-.67 1.89-.44 3.68-.8 3.68-.8zM32.78 45.53l-.74.89c-.45.53-1 1.3-1.53 2L29 50.53c-.21.28-.37.52-.48.69l-.17.27s-.06-.49-.12-1.22-.11-1.69-.16-2.67-.09-2-.11-2.74V43.6l2.51-3c.32-.38.62-.76.93-1.11l.86-.92.84-.9-.1 1.22c0 .75-.14 1.7-.15 2.71-.09 2-.07 3.93-.07 3.93zM41.13 45.18l-.74.79-.76.81c-.27.3-.54.64-.81 1l-2.21 2.66-.31.06-.82.16-2.48.52c-.92.21-1.86.43-2.57.61s-1.15.32-1.15.32l.17-.26c.11-.17.26-.41.47-.68l1.5-2c.55-.73 1.07-1.49 1.51-2l.73-.88s1.91-.35 3.75-.63c.91-.15 1.89-.22 2.58-.3zM38.73 38.88l-.23.22-.58.61-1.74 1.87c-.63.68-1.28 1.35-1.71 1.9l-.74.89v-2.48c0-.46 0-.94.08-1.43.12-1.95.3-4 .3-4l.84-.9 2-1.87 2-1.86.94-.8-.23 1.22c-.14.72-.26 1.74-.4 2.71-.34 2.04-.53 3.92-.53 3.92zM47.09 39.4l-.83.7-1.72 1.64-1.72 1.64-.74.79s-1.84.15-3.74.36c-.47.05-1 .1-1.4.17l-1.19.19-1.18.2.73-.88c.42-.54 1.06-1.21 1.69-1.88l1.72-1.85.57-.61.23-.22s1.95-.14 3.83-.21c.95 0 1.86-.08 2.57-.07zM45.35 32.9l-2.84 2.41c-.71.6-1.36 1.27-1.87 1.74l-.84.8s.21-1.92.49-3.9c.15-1 .34-1.93.48-2.67l.23-1.22.94-.79 1-.81 1.15-.87 3.14-2.36s-.55 2-1 3.87c-.24 1-.46 1.9-.62 2.6zM53.59 34.25l-2.76 2.08-1 .76-.84.72-.82.7H44.4c-1.86.06-3.79.19-3.79.19l.83-.79c.51-.47 1.14-1.13 1.85-1.72l2.8-2.37h1.19l2.63.16c1.86.08 3.68.27 3.68.27zM16.07 121.18s.1.46.3 1.12l.7 2.46c.24.9.55 1.78.77 2.44l.37 1.1-1-.64c-.62-.39-1.47-.91-2.28-1.46-1.61-1.1-3.24-2.3-3.24-2.3s-.14-.47-.33-1.18l-.61-2.64c-.23-1-.44-1.92-.56-2.65l-.22-1.21.94.82c.56.49 1.3 1.13 2.09 1.75 1.53 1.21 3.07 2.39 3.07 2.39zM20.81 114.29l.19 1.06c.1.64.29 1.48.49 2.32L22 120c.17.63.29 1 .29 1s-.82 1.65-1.62 3.39c-.39.87-.73 1.74-1 2.4l-.44 1.12-.37-1.09c-.22-.65-.53-1.52-.76-2.41l-.67-2.41c-.2-.66-.29-1.11-.29-1.11s.87-1.74 1.77-3.39c.43-.82.93-1.64 1.29-2.24zM14.35 112.43v.32c0 .2.06.49.13.83l.52 2.52.24 1.34.27 1.16.26 1.13-1-.74c-.57-.45-1.38-1.05-2.11-1.69-1.49-1.26-3-2.62-3-2.62l-.06-.33c0-.21-.09-.51-.13-.88l-.34-2.68-.18-1.43-.1-1.26-.09-1.22.85.91c.52.54 1.16 1.26 1.9 2 1.42 1.34 2.84 2.64 2.84 2.64zM19.78 106.06l.08 1.08.08 1.11.16 1.26.3 2.36c0 .32.08.59.12.77l.05.29s-1 1.56-2 3.21c-.5.83-.92 1.65-1.26 2.29l-.55 1.06-.26-1.12-.26-1.15-.24-1.33-.44-2.48c-.07-.34-.1-.62-.12-.82v-.31s1-1.64 2.1-3.19c.51-.77 1.11-1.54 1.52-2.1zM13.54 103.54v1.16l.19 2.55c.07.93.14 1.85.24 2.54l.15 1.15-.89-.83c-.53-.5-1.26-1.19-1.92-1.9-1.35-1.41-2.71-2.91-2.71-2.91s-.05-.49-.06-1.23l-.07-2.7v-3.93l.75 1c.46.59 1 1.37 1.68 2.13 1.36 1.54 2.64 2.97 2.64 2.97zM19.6 97.76V101.22l.06 2.38c0 .65.05 1.08.05 1.08s-1.13 1.45-2.26 3c-.58.77-1.1 1.55-1.49 2.15l-.66 1-.14-1.14c-.1-.68-.17-1.6-.24-2.51l-.19-2.52v-1.15s1.21-1.52 2.41-3c.58-.72 1.27-1.42 1.74-1.93zM13.61 94.62l-.12 3.72c0 .93-.07 1.86 0 2.56v1.16l-.8-.92c-.48-.56-1.13-1.31-1.71-2.08-1.2-1.54-2.39-3.17-2.39-3.17v-1.23c0-.74.14-1.71.22-2.69l.25-2.69a12.14 12.14 0 0 1 .15-1.22l.17.29c.1.19.27.45.48.77.41.64 1 1.48 1.5 2.3s1.1 1.63 1.51 2.22l.5.71zM20.22 89.48a9.55 9.55 0 0 0-.13 1.07l-.22 2.37c-.07.86-.18 1.72-.2 2.37v1.08s-1.28 1.33-2.57 2.74c-.66.71-1.26 1.43-1.71 2l-.75.93v-1.15-2.52l.11-3.67.23-.24.62-.62c.52-.51 1.2-1.18 1.89-1.83s1.37-1.28 1.88-1.75c.25-.23.47-.43.63-.56zM58.62 176l.28.15.75.38 2.28 1.17c.82.44 1.69.78 2.32 1.08l1.06.48s-1.85.53-3.79 1-3.88.81-3.88.81l-1.09-.56c-.65-.35-1.49-.85-2.35-1.34s-1.71-1-2.32-1.38l-1-.66 1.24-.13 1.26-.14 1.45-.22c1.9-.26 3.79-.64 3.79-.64zM56.77 167.86l.91.58c.54.37 1.3.78 2 1.21s1.49.87 2.06 1.18l1 .49s.65 1.73 1.39 3.5 1.6 3.45 1.6 3.45l-1-.47c-.62-.3-1.48-.63-2.29-1.07l-2.25-1.15-.74-.38-.28-.15s-.68-1.83-1.28-3.61l-.43-1.3-.37-1.14zM51 171.35l.26.19c.16.12.4.29.7.47l2.15 1.38c.39.25.78.51 1.15.73l1 .59 1 .58-1.2.21c-.72.11-1.71.3-2.67.41-1.94.24-4 .42-4 .42l-.28-.18c-.18-.12-.44-.28-.74-.5l-2.2-1.57c-.4-.29-.81-.56-1.17-.84l-1-.78-1-.76h1.4c.75 0 1.72 0 2.72-.07 1.98-.11 3.88-.28 3.88-.28zM50 163l.85.67.87.69c.32.25.68.49 1 .74l1.94 1.38c.26.19.49.34.65.44l.25.16s.48 1.78 1 3.61c.27.92.6 1.79.83 2.47l.41 1.13-1-.57-1-.59c-.37-.22-.75-.48-1.14-.72l-2.13-1.36c-.29-.18-.53-.35-.69-.46l-.26-.18s-.5-1.88-.92-3.7c-.22-.91-.38-1.86-.51-2.55zM43.94 165.92l.88.76c.54.44 1.28 1 2 1.59s1.45 1.16 2 1.55l.95.67-1.22.09-1.26.08h-5.43l-.26-.22-.67-.58-2-1.77c-.75-.64-1.43-1.34-2-1.84l-.89-.85s2 .2 4 .33 3.9.19 3.9.19zM43.79 157.56l.78.75c.48.44 1.08 1.07 1.74 1.62l1.8 1.56.59.51.23.19s.3 1.81.67 3.68l.28 1.38.28 1.18.29 1.16-.94-.66c-.57-.38-1.28-1-2-1.53s-1.45-1.13-2-1.57l-.87-.75s-.31-1.91-.54-3.77-.31-3.75-.31-3.75zM37.45 159.79l.8.84c.47.52 1.15 1.15 1.82 1.79s1.34 1.29 1.86 1.76l.88.76s-2 0-3.9-.2l-2.73-.24c-.76-.07-1.24-.14-1.24-.14l-2.71-2.85-2.57-3s2 .4 3.91.72c1 .18 1.95.29 2.67.38zM38.15 151.47l2.26 2.62 2.39 2.5s0 .48.07 1.16.13 1.62.22 2.57c.16 1.91.46 3.79.46 3.79l-.87-.75c-.51-.46-1.17-1.11-1.83-1.74s-1.34-1.26-1.8-1.77l-.79-.83-.07-1.2c0-.72-.09-1.65-.08-2.61-.01-1.9.04-3.74.04-3.74zM31.63 153l.72.91c.43.55 1 1.28 1.62 2l1.67 1.93c.22.27.42.48.57.62l.22.23s-.49-.05-1.21-.16l-2.65-.44c-1-.17-2-.36-2.69-.51l-1.21-.28-.76-1c-.44-.59-1.09-1.33-1.64-2.15L24.7 152l-.52-.73c-.13-.17-.19-.28-.19-.28l.33.11.88.26c.72.21 1.68.49 2.63.75s1.88.51 2.61.66zM33.17 144.84a2.87 2.87 0 0 0 .16.25l.45.64 1.38 1.94c.49.72 1.06 1.37 1.45 1.89l.67.85-.07 1.17V156.78l.05 1.19-.22-.23c-.14-.14-.34-.35-.56-.62l-1.65-1.91c-.61-.68-1.18-1.41-1.6-2l-.71-.9.05-1.19c0-.7.11-1.67.2-2.62s.19-1.88.27-2.57l.1-.83zM26.52 145.72l.63 1c.39.58.86 1.38 1.4 2.14l1.45 2.06.49.69.19.26-1.17-.3c-.7-.18-1.65-.44-2.6-.71s-1.92-.55-2.61-.79l-1.18-.4-.66-1-.68-1.06c-.24-.39-.48-.82-.73-1.25L19.73 144c-.19-.32-.33-.59-.42-.78l-.15-.3s.45.21 1.14.5 1.63.65 2.55 1 1.83.69 2.51.93zM28.91 137.72l.09.28c.09.17.21.41.37.69l1.19 2.06c.22.37.42.75.64 1.1l.6.93.58.91-.18 1.16c-.12.71-.22 1.63-.32 2.56s-.18 1.89-.24 2.61-.09 1.2-.09 1.2l-.15-.22-.48-.68-1.46-2.06c-.54-.74-1-1.54-1.38-2.11l-.62-1 .17-1.18c.12-.71.3-1.66.48-2.59s.37-1.84.52-2.52.28-1.14.28-1.14zM22.19 137.92l1.7 3.31 1.85 3.22s-1.81-.65-3.66-1.38c-.94-.35-1.82-.76-2.51-1.06l-1.14-.52-.56-1.09c-.35-.65-.74-1.55-1.15-2.45s-.82-1.79-1.11-2.47l-.45-1.14 1.08.62c.64.37 1.55.82 2.43 1.27s1.76.87 2.41 1.19 1.11.5 1.11.5zM25.4 130.2l.4 1c.26.6.62 1.38 1 2.17s.7 1.58 1 2.15l.49 1-.29 1.09c-.17.68-.42 1.61-.59 2.52-.38 1.83-.71 3.75-.71 3.75l-1.83-3.18-1.67-3.27s.1-.46.3-1.16.46-1.62.74-2.52.54-1.78.78-2.45zM18.68 129.72l1.32 3.46c.33.87.75 1.7 1 2.34l.48 1.06s-1.74-.83-3.51-1.74-3.45-2-3.45-2l-.45-1.14c-.26-.69-.56-1.63-.88-2.56-.67-1.85-1.17-3.75-1.17-3.75l1 .72c.59.43 1.43 1 2.27 1.52 1.71 1.11 3.39 2.09 3.39 2.09zM22.7 122.36l.29 1c.16.63.47 1.44.74 2.26s.54 1.64.77 2.25l.4 1s-.66 1.73-1.27 3.54-1.08 3.65-1.08 3.65l-.47-1c-.27-.63-.69-1.45-1-2.31l-1.34-3.42s.7-1.82 1.42-3.56c.36-.87.73-1.72 1-2.36zM66.66 179.89l3.46 1.36 3.52 1.2s-1.78.71-3.66 1.39c-.94.36-1.87.62-2.58.85l-1.2.36-1.14-.45c-.69-.25-1.58-.68-2.48-1.08s-1.8-.8-2.46-1.12l-1.12-.56s2-.37 3.88-.9c1-.25 1.9-.51 2.6-.7s1.18-.35 1.18-.35zM64 172l1 .49c.58.28 1.38.63 2.16 1s1.57.73 2.18 1l1 .4.53 1c.32.62.75 1.49 1.22 2.29.91 1.56 1.91 3.22 1.91 3.22l-3.48-1.18-3.42-1.35s-.23-.41-.54-1.07-.72-1.52-1.11-2.38C64.64 173.72 64 172 64 172z"/><path class="cls-3" d="M57 86.78v8.27h5.2V79.6H55a4.1 4.1 0 0 1-4.1-4V57.44a3.91 3.91 0 0 1 4.1-4.1h9.3a4 4 0 0 1 4.1 4v10.09h-6.2V59.5H57v13.95h7.25a4.11 4.11 0 0 1 4.1 4.1v19.62a4.1 4.1 0 0 1-4.1 4H55a4.15 4.15 0 0 1-4.1-4V86.78zM77.25 59.5h-5.47v-6.16h17.1v6.16H83.4v41.71h-6.15zM103.64 91.84H96.8l-1 9.37h-6.11l5.06-47.87h10.94l4.92 47.87h-6zm-6.15-6.15H103l-2.78-26.19zM114.45 101.21V53.34h15.39v6.16h-9.24v13.2h6.5v6.15h-6.5v22.36zM133.94 101.21V53.34h15.39v6.16h-9.23v13.2h6.5v6.15h-6.5v22.36zM63.88 107.36h13.4a4.11 4.11 0 0 1 4.1 4.1v18a4.1 4.1 0 0 1-4.1 4H70v21.75h-6.12v-47.85zm11.35 6.15H70v13.81h5.2zM85.49 107.36h6.15v47.87h-6.15zM108.46 121.72v-8.21h-5.2v35.56h5.2v-8.27h6.15v10.4a4.1 4.1 0 0 1-4.1 4h-9.3a4.15 4.15 0 0 1-4.1-4v-39.73a4.21 4.21 0 0 1 4.1-4.1h9.3a4.11 4.11 0 0 1 4.1 4.1v10.26zM125.29 107.36v18l4.79-18h6.5l-6.5 22.22 7.25 25.64H131l-5.68-20.92v20.92h-6.15v-47.86z"/><path class="cls-4" d="M119 13.13a2.46 2.46 0 0 0-2.08-.92 4.58 4.58 0 0 0-3.55 1.57 4.08 4.08 0 0 0-1.22 3.1v.24l-.16.07a7.83 7.83 0 0 1-3.08.72 1.22 1.22 0 0 1-1.06-.49 6 6 0 0 0 3.16-1.47 2.6 2.6 0 0 0 1.1-2.06q-.12-1.56-2-1.57a4.88 4.88 0 0 0-3.61 1.57 4.4 4.4 0 0 0-1.41 3 3.55 3.55 0 0 0 0 .51 1.11 1.11 0 0 1-.5.22c-.25 0-.41-.05-.47-.16a1.08 1.08 0 0 1-.08-.57 10.35 10.35 0 0 1 .25-1.2 9 9 0 0 0 .26-1.59 1.75 1.75 0 0 0-.31-1.23 1.45 1.45 0 0 0-1.35-.45 2.92 2.92 0 0 0-1.51.59 5.1 5.1 0 0 0-.88.84l-.3.25a1.92 1.92 0 0 0-.31-1.24 1.48 1.48 0 0 0-1.37-.45 3.48 3.48 0 0 0-2 .88 3.66 3.66 0 0 0-.69.78 1.74 1.74 0 0 0 0-.37 1.84 1.84 0 0 0-.31-1.07.87.87 0 0 0-.82-.42q-.3 0-1.12.78l-1.24 1.14.47.53a2.17 2.17 0 0 1 .67-.4c.14 0 .2.12.18.35a11 11 0 0 1-.18 1.42c-.07.38-.11.7-.14 1a2.16 2.16 0 0 1-1 .58c-.42 0-.62-.28-.61-.84q.29-1.84.55-3a1.64 1.64 0 0 0-.23-1.15 1 1 0 0 0-1-.38 2.81 2.81 0 0 0-1.26.79l-.59.53c0-.93-.46-1.4-1.27-1.43q-1.82-.06-2.46 2.05a1.63 1.63 0 0 1 .73-.18q.67 0 .59.75a3.41 3.41 0 0 1-.59 1.32q-.55.87-.82.87t-.65-1.34q-.1-.39-.35-2t-1.26-1.4a2.89 2.89 0 0 0-1.29.79l-1.28 1.14.41.53a2.68 2.68 0 0 1 .69-.41q.45 0 .84 1.41l.7 2.59q.53 1.41 1.29 1.41 1.23 0 3-2.32a9.87 9.87 0 0 0 1.62-2.72 2 2 0 0 1 .61-.37c.23 0 .35.17.35.51 0 .06-.13.55-.38 1.45a9.23 9.23 0 0 0-.4 2 1.48 1.48 0 0 0 .3 1 1.14 1.14 0 0 0 .93.39 4 4 0 0 0 2.63-1.14l.23-.22a1.59 1.59 0 0 0 .36.73 2.42 2.42 0 0 0 1.91.57 4.12 4.12 0 0 1-.14-1.53 5.72 5.72 0 0 1 .63-2.34q.57-1.12 1.06-1.12c.38 0 .56.24.53.73a5 5 0 0 1-.19 1.12 5.27 5.27 0 0 0-.19 1.26 1.72 1.72 0 0 0 .45 1.43 2.77 2.77 0 0 0 1.92.45 2.9 2.9 0 0 1-.17-1.29 5.42 5.42 0 0 1 .81-2.47q.71-1.22 1.22-1.22c.32 0 .47.25.45.75a7.07 7.07 0 0 1-.25 1.37 7.13 7.13 0 0 0-.24 1.51q0 1.41 1.24 1.41a4 4 0 0 0 2.63-1.14c0 .05.06.11.09.16a2.5 2.5 0 0 0 2.28 1.06 8.38 8.38 0 0 0 4.22-1.19l.45-.27a2.77 2.77 0 0 0 .31.5 2.85 2.85 0 0 0 2.36 1 4.14 4.14 0 0 0 3.12-1.31 4.67 4.67 0 0 0 1.33-3.12 3.16 3.16 0 0 0-.56-2.16zm-11.43 3.53a1.13 1.13 0 0 1 0-.25 2.73 2.73 0 0 1 .63-1.55 1.62 1.62 0 0 1 1.19-.81c.3 0 .44.17.43.52a1.91 1.91 0 0 1-.59 1 4.43 4.43 0 0 1-1.64 1.09zm9.25.38a1.79 1.79 0 0 1-1.51 1 .67.67 0 0 1-.61-.43 1.67 1.67 0 0 1-.18-.86 3.77 3.77 0 0 1 .59-1.89 1.89 1.89 0 0 1 1.65-1.08c.21 0 .37.15.48.44a2.5 2.5 0 0 1 .15 1 3.73 3.73 0 0 1-.56 1.78zM90.74 9.15A2 2 0 0 1 92 8.69a.87.87 0 0 1 .69.32.92.92 0 0 1 .26.65 1.38 1.38 0 0 1-.49.94 1.75 1.75 0 0 1-1.26.51c-.75 0-1.11-.33-1.08-1a1.36 1.36 0 0 1 .62-.96z"/></g></g></svg>
